<?xml version="1.0" encoding="utf-8"?>
<svg xmlns="http://www.w3.org/2000/svg"
	xmlns:xlink="http://www.w3.org/1999/xlink"
	width="18px" height="22px" viewBox="0 0 18 22">
<path fillRule="evenodd" d="M 16 6C 16 6 16 22 16 22 16 22 2 22 2 22 2 22 2 6 2 6 2 6-0 6-0 6-0 6-0 4-0 4-0 4 4 4 4 4 4 4 4-0 4-0 4-0 14-0 14-0 14-0 14 4 14 4 14 4 18 4 18 4 18 4 18 6 18 6 18 6 16 6 16 6ZM 12 2C 12 2 6 2 6 2 6 2 6 4 6 4 6 4 12 4 12 4 12 4 12 2 12 2ZM 14 6C 14 6 4 6 4 6 4 6 4 20 4 20 4 20 14 20 14 20 14 20 14 6 14 6ZM 8 18C 8 18 6 18 6 18 6 18 6 8 6 8 6 8 8 8 8 8 8 8 8 18 8 18ZM 12 18C 12 18 10 18 10 18 10 18 10 8 10 8 10 8 12 8 12 8 12 8 12 18 12 18Z" fill="rgb(63,63,63)" opacity="0.50"/></svg>