<?xml version="1.0" encoding="utf-8"?>
<svg xmlns="http://www.w3.org/2000/svg"
	xmlns:xlink="http://www.w3.org/1999/xlink"
	width="14px" height="15px" viewBox="0 0 14 15">
<path fillRule="evenodd" d="M 10 10C 10 10 10 15 10 15 10 15-0 15-0 15-0 15-0 2-0 2-0 2 5 2 5 2 5 2 5 3 5 3 5 3 1 3 1 3 1 3 1 14 1 14 1 14 9 14 9 14 9 14 9 10 9 10 9 10 10 10 10 10ZM 3 11C 3 11 6 9 6 9 6 9 6.56 8.69 8 8 13.75 4.75 8 5 8 5 8 5 10.31 4.78 12 4 13.69 3.22 12.53 2.91 12 3 14.09 1.97 14-0 14-0 14-0 8.99 2.72 7 5 5.6 6.6 5 9 5 9 5 9 3 11 3 11Z" fill="rgb(203,203,203)"/></svg>