<svg xmlns="http://www.w3.org/2000/svg" viewBox="0 0 100 94.04" height="20" width="22">
  <defs>
    <style>.cls-1{fill:#fff;}</style>
  </defs>
  <title>Ресурс 3</title><g id="Слой_2" data-name="Слой 2"><g id="Слой_1-2" data-name="Слой 1"><path class="cls-1" d="M38.14,15.85,50.92,4.66a2.93,2.93,0,0,0,4,.24L66.33,17.52l2.82.17L55.92,3V3a2.84,2.84,0,0,0-2.7-3h0a2.84,2.84,0,0,0-3,2.62s0,0,0,0l-14.87,13ZM90.89,19,13.57,14.46A9.68,9.68,0,0,0,3.33,23.54L0,79.21A9.68,9.68,0,0,0,9.11,89.43L86.43,94a9.68,9.68,0,0,0,10.24-9.08L100,29.27A9.68,9.68,0,0,0,90.89,19ZM22.05,75.67l-4.83-.29a2.42,2.42,0,1,1,.29-4.83l4.83.29a2.42,2.42,0,1,1-.29,4.83ZM22.63,66l-4.83-.29a2.42,2.42,0,1,1,.29-4.83l4.83.29A2.42,2.42,0,1,1,22.63,66Zm.57-9.65-4.83-.29a2.42,2.42,0,1,1,.29-4.83l4.83.29a2.42,2.42,0,1,1-.29,4.83ZM80,79.11,31.72,76.24A2.42,2.42,0,1,1,32,71.41l48.33,2.87A2.42,2.42,0,1,1,80,79.11Zm.57-9.66L32.29,66.59a2.42,2.42,0,1,1,.29-4.83L80.9,64.63a2.42,2.42,0,1,1-.29,4.83Zm3.13-11.92a2.42,2.42,0,0,1-2.56,2.27L32.87,56.93a2.42,2.42,0,1,1,.29-4.83L81.48,55a2.42,2.42,0,0,1,2.27,2.56Zm1-16.9-67.66-4L17.67,27,85.8,29.83Z"/></g></g></svg>
