<svg xmlns="http://www.w3.org/2000/svg" viewBox="0 0 79.97 100.02" height="20" width="22">
  <defs><style>.cls-1{fill:#fff;}</style>
  </defs><title>Ресурс 4</title><g id="Слой_2" data-name="Слой 2"><g id="Слой_1-2" data-name="Слой 1"><path class="cls-1" d="M5.15,78l2,22,22.09-2-2-22Zm16.5,7.79a2.21,2.21,0,1,1,2.22-2.21A2.22,2.22,0,0,1,21.65,85.78ZM54.16,43.09,47.63,68.84l25.81,6.51L80,49.6Zm3,11.7a2.21,2.21,0,1,1,2.22-2.21A2.22,2.22,0,0,1,57.15,54.79ZM0,3.61,3.62,29.92,30,26.31,26.37,0Zm21.65,6.92a2.21,2.21,0,1,1,2.22-2.21A2.22,2.22,0,0,1,21.65,10.53ZM4.81,62.16l22,2.8,2.81-22-22-2.8ZM17.21,45.94A2.21,2.21,0,1,1,15,48.16,2.22,2.22,0,0,1,17.21,45.94ZM71.72.79,45.16,2.63,47,29.13l26.56-1.84ZM66,10.53a2.21,2.21,0,1,1,2.22-2.21A2.22,2.22,0,0,1,66,10.53Z"/></g></g></svg>
