<svg xmlns="http://www.w3.org/2000/svg" viewBox="0 0 90.94 100.06" height="20" width="22"><defs><style>.cls-1{fill:#fff;}</style></defs><title>Ресурс 5</title><g id="Слой_2" data-name="Слой 2"><g id="Слой_1-2" data-name="Слой 1"><path class="cls-1" d="M24.5,15.22a4.61,4.61,0,0,0,3.17-.65,3.53,3.53,0,0,0,1-2.64l.22-4.09.22-4.1a3.51,3.51,0,0,0-.73-2.8A4.87,4.87,0,0,0,25.33,0a4.64,4.64,0,0,0-3,.6,3.51,3.51,0,0,0-1,2.7L21,7.41,20.8,11.5a3.53,3.53,0,0,0,.74,2.74A4.4,4.4,0,0,0,24.5,15.22Zm46,2.51a4.61,4.61,0,0,0,3.17-.65,3.53,3.53,0,0,0,1-2.64l.22-4.09.22-4.1a3.51,3.51,0,0,0-.73-2.8,4.87,4.87,0,0,0-3.08-.93,4.63,4.63,0,0,0-3,.6,3.51,3.51,0,0,0-1,2.7L67,9.92,66.76,14a3.53,3.53,0,0,0,.74,2.74A4.39,4.39,0,0,0,70.46,17.74Zm20-6.06a1.81,1.81,0,0,0-1.21-.54l-8.84-.48-.22,4.09a11.22,11.22,0,0,1-.65,3.19,7.32,7.32,0,0,1-1.81,2.78,9,9,0,0,1-3.12,1.94,12.34,12.34,0,0,1-8.84-.48A8.38,8.38,0,0,1,63,19.91a7.67,7.67,0,0,1-1.43-3,11.21,11.21,0,0,1-.3-3.24l.22-4.1-27-1.48-.22,4.09a11.2,11.2,0,0,1-.65,3.19,7.31,7.31,0,0,1-1.81,2.78,9,9,0,0,1-3.12,1.94,10.79,10.79,0,0,1-4.46.58,10.78,10.78,0,0,1-4.37-1.06A8.38,8.38,0,0,1,17,17.4a7.69,7.69,0,0,1-1.43-3,11.22,11.22,0,0,1-.3-3.24l.22-4.09-9-.49A1.82,1.82,0,0,0,5.26,7a1.5,1.5,0,0,0-.59,1.14L3.73,25.47a1.5,1.5,0,0,0,.47,1.2,1.81,1.81,0,0,0,1.21.54l82.73,4.53a1.81,1.81,0,0,0,1.26-.4A1.5,1.5,0,0,0,90,30.19l.94-17.31A1.5,1.5,0,0,0,90.47,11.68Zm-2.66,26L5.08,33.17a1.82,1.82,0,0,0-1.26.4,1.5,1.5,0,0,0-.59,1.14L0,93.68a1.68,1.68,0,0,0,.46,1.26,1.7,1.7,0,0,0,1.21.59l82.73,4.52a1.7,1.7,0,0,0,1.27-.46,1.68,1.68,0,0,0,.6-1.2l3.22-59a1.5,1.5,0,0,0-.47-1.2A1.81,1.81,0,0,0,87.81,37.7Z"/></g></g></svg>
