<svg xmlns="http://www.w3.org/2000/svg" viewBox="0 0 100.01 77.9" height="20" width="22"><defs><style>.cls-1{fill:#fff;}</style></defs><title>Ресурс 2</title><g id="Слой_2" data-name="Слой 2"><g id="Слой_1-2" data-name="Слой 1"><path class="cls-1" d="M62.2.71C30.76-3.82,8.18,14.44,6.43,26.44c26.36-11,43.59-4.56,53.65,6.14a2.14,2.14,0,0,1,2.12-1.85H75.07a2.14,2.14,0,1,1,0,4.29H62.2a26.88,26.88,0,0,1,3,4.72,2.13,2.13,0,0,1,1.27-.43H79.36a2.14,2.14,0,1,1,0,4.29H66.82C70.34,54,67.8,64.69,66.49,65a46.47,46.47,0,0,0,11.44-1.21c3.72-.9,8.13,1,5.72,9.79,2.46-1.54,8.54-17.16,10.26-19.2C108.4,37.16,96.77,4.6,62.2.71Zm8.58,25.73H53.62a2.14,2.14,0,1,1,0-4.29H70.78a2.14,2.14,0,1,1,0,4.29ZM60.05,53.24c0-13.62-13.44-24.66-30-24.66S0,39.62,0,53.24A21.54,21.54,0,0,0,4.92,66.77a26.51,26.51,0,0,0,3.94,4A30.22,30.22,0,0,0,15,74.59,35,35,0,0,0,30,77.9a35.36,35.36,0,0,0,13.18-2.5c2.55-1,14.76,1.9,16.84.35-9-1.53-6.55-7-5.21-8.62A21.62,21.62,0,0,0,60.05,53.24ZM17.16,44.09a.5.5,0,0,1,.5-.5H38.11a.5.5,0,0,1,.5.5v3.29a.5.5,0,0,1-.5.5H17.66a.5.5,0,0,1-.5-.5ZM38.61,64.54a.5.5,0,0,1-.5.5H17.66a.5.5,0,0,1-.5-.5V61.25a.5.5,0,0,1,.5-.5H38.11a.5.5,0,0,1,.5.5ZM47.19,56a.5.5,0,0,1-.5.5h-29a.5.5,0,0,1-.5-.5V52.67a.5.5,0,0,1,.5-.5h29a.5.5,0,0,1,.5.5Z"/></g></g></svg>
