<svg xmlns="http://www.w3.org/2000/svg" viewBox="0 0 100 23">
  <defs>
    <style>.cls-1{fill:#26a737;}</style>
  </defs>
  <title>Ресурс 2</title>
  <g id="Слой_2" data-name="Слой 2">
    <g id="Слой_1-2" data-name="Слой 1">
      <path class="cls-1" d="M0,16.72A5.23,5.23,0,0,1,.84,15a5.52,5.52,0,0,1,1-1.37.73.73,0,0,1,.63.25,2,2,0,0,1,.25.92,4.6,4.6,0,0,0,1,2.9,3,3,0,0,0,2.17.79,3.66,3.66,0,0,0,2.54-1,3,3,0,0,0,1.09-2.29,3,3,0,0,0-.42-1.43,14.19,14.19,0,0,0-2.38-2.59A11.59,11.59,0,0,1,4.15,8.06a5.69,5.69,0,0,1-.61-2.47A5.56,5.56,0,0,1,5.16,1.75,5.53,5.53,0,0,1,9.44,0,5.86,5.86,0,0,1,12.8.91q1.34.91,1.34,1.52T12.36,5h-.25q-.28-.11-.34-.79a3.83,3.83,0,0,0-1-2.27,2.62,2.62,0,0,0-2-.88,2.57,2.57,0,0,0-1.87.77,2.51,2.51,0,0,0-.78,1.85,3.47,3.47,0,0,0,.5,1.68A14.91,14.91,0,0,0,9.24,8.2a13.27,13.27,0,0,1,2.67,3.09,4.81,4.81,0,0,1,.59,2.19,5.44,5.44,0,0,1-2.12,4.22,7.39,7.39,0,0,1-5,1.83,6.6,6.6,0,0,1-3.88-1.07Q0,17.39,0,16.72"/>
      <path class="cls-1" d="M25.91,16.22a15.51,15.51,0,0,1-3.23,2.49,6.33,6.33,0,0,1-3.06.79,4,4,0,0,1-3-1.14,3.87,3.87,0,0,1-1.16-2.89,7.87,7.87,0,0,1,2.14-5.3,6.16,6.16,0,0,1,4.63-2.43,2.94,2.94,0,0,1,2,.67A2.18,2.18,0,0,1,25,10.14a.92.92,0,0,1-.14.57,1.49,1.49,0,0,1-.54.38l-1.6.74a1.17,1.17,0,0,1-.43.13q-.19,0-.19-.27,0-.11.08-.71t.08-.73a1.64,1.64,0,0,0-.25-1,.79.79,0,0,0-.68-.36q-1,0-1.84,1.45a6.55,6.55,0,0,0-.83,3.31,3.91,3.91,0,0,0,.78,2.56,2.57,2.57,0,0,0,2.09,1,3.84,3.84,0,0,0,2.1-.63,13,13,0,0,0,2.23-1.92Z"/>
      <path class="cls-1" d="M36.2,16.22q-3.45,3.31-5.32,3.31a1.78,1.78,0,0,1-1.42-.69,2.59,2.59,0,0,1-.58-1.72q0-1.9,2.08-5.09a7.78,7.78,0,0,1-2.23.71,15.56,15.56,0,0,1-2.81,3.48h-.32V15a17.71,17.71,0,0,0,1.94-2.34,1.64,1.64,0,0,1-1.18-1.52,4.28,4.28,0,0,1,.72-2.22,2.23,2.23,0,0,1,2-1.18,1,1,0,0,1,1.07,1.08,7.3,7.3,0,0,1-.62,2.42q2.28-.24,4-3.42l1.25-.05-1.28,3.45q-.8,2.18-1,3a5,5,0,0,0-.23,1.39,1.41,1.41,0,0,0,.27.9.88.88,0,0,0,.72.34,1.59,1.59,0,0,0,.95-.33q.45-.33,2-1.83Z"/>
      <path class="cls-1" d="M50.89,16.22a24.54,24.54,0,0,1-3,2.49,4.14,4.14,0,0,1-2.2.8A1.91,1.91,0,0,1,44,18.66a4,4,0,0,1-.58-2.3,15.14,15.14,0,0,1-2.71,2.4,4.3,4.3,0,0,1-2.34.77,2,2,0,0,1-1.68-.85,3.77,3.77,0,0,1-.63-2.3A24.35,24.35,0,0,1,38,8.49l3.67-.72q-2.27,6.46-2.27,8.29,0,1.29,1,1.29.71,0,1.77-1.14a5.59,5.59,0,0,0,1.32-2l1.8-5.74L49,7.74q-1.3,4.05-1.78,5.7a9.73,9.73,0,0,0-.48,2.3q0,1.27.88,1.27a4,4,0,0,0,2.12-1.28l1.16-1.06Z"/>
      <path class="cls-1" d="M71.13,16.22a23.32,23.32,0,0,1-2.94,2.47,4.28,4.28,0,0,1-2.38.82,1.8,1.8,0,0,1-1.44-.61,2.44,2.44,0,0,1-.53-1.65,12.24,12.24,0,0,1,.74-3.69,13.87,13.87,0,0,0,.74-2.72q0-.43-.45-.43a.78.78,0,0,0-.33.09,3.4,3.4,0,0,0-.47.27,7.19,7.19,0,0,0-.56.46q-.3.27-.63.62t-.72.77a3.06,3.06,0,0,0-.71,1.17L61,15.71l-.83,3.18-3.48.62L58,14q.15-.61.36-1.78a13.27,13.27,0,0,0,.21-1.4q0-.46-.32-.46a.66.66,0,0,0-.28.09,2.84,2.84,0,0,0-.47.28q-.3.22-.65.51t-.8.74q-.45.44-.94,1a3.3,3.3,0,0,0-.83,1.7q-.22,1.16-.3,2.07t-.11,2l-3.05.71q-.11-1.55-.11-2.59a15.67,15.67,0,0,1,.52-4.29A27.17,27.17,0,0,1,53,8.32l3.33-.63a29.91,29.91,0,0,0-1.39,4.24q3.7-4.22,5.67-4.22a1.41,1.41,0,0,1,1.16.57,2.37,2.37,0,0,1,.45,1.5q0,.43-.14,1.59a30.73,30.73,0,0,1,3.34-3,3.37,3.37,0,0,1,1.86-.69,1.52,1.52,0,0,1,1.24.59A2.31,2.31,0,0,1,69,9.82a11.57,11.57,0,0,1-.81,3.71,11.74,11.74,0,0,0-.81,3q0,.75.56.75a2,2,0,0,0,1-.46,21.27,21.27,0,0,0,2.23-2.14Z"/>
      <path class="cls-1" d="M77.9,16.22q-3.22,3.31-4.81,3.31a1.77,1.77,0,0,1-1.49-.88A3.83,3.83,0,0,1,71,16.43a23.74,23.74,0,0,1,2-7.95l3.49-.71h.17L75.26,12a14.08,14.08,0,0,0-.85,3.73,1.2,1.2,0,0,0,.2.72.6.6,0,0,0,.5.28,1.87,1.87,0,0,0,1.08-.38,13.12,13.12,0,0,0,1.71-1.66ZM77.63,2.51q0,3.23-2.43,3.23a3.05,3.05,0,0,1-2-.7,9.68,9.68,0,0,0,1.24-2.67A3.69,3.69,0,0,0,76.15,3,2.5,2.5,0,0,0,77.63,2.51Z"/>
      <path class="cls-1" d="M80.38,18.6a.8.8,0,1,1-.79-.79A.79.79,0,0,1,80.38,18.6Z"/>
      <path class="cls-1" d="M88.1,16.23a3.25,3.25,0,0,1-1,2.34,3.38,3.38,0,0,1-2.38,1,3.44,3.44,0,0,1-2.39-1,3.28,3.28,0,0,1,0-4.69,3.43,3.43,0,0,1,2.39-1,3.37,3.37,0,0,1,2.38,1A3.25,3.25,0,0,1,88.1,16.23Zm-1.21,0a2.17,2.17,0,1,0-2.17,2.12A2.14,2.14,0,0,0,86.89,16.23Z"/>
      <path class="cls-1" d="M90.59,13.72a4,4,0,0,1,2.35-.79l-.3,1.19A2,2,0,0,0,90.59,16v3.37H89.38V13.07h1.21Z"/>
      <path class="cls-1" d="M100,13.07v6.62A3.23,3.23,0,0,1,99,22a3.38,3.38,0,0,1-2.38,1,3.6,3.6,0,0,1-1.82-.48,3.83,3.83,0,0,1-.61-.46l.92-.79a2.84,2.84,0,0,0,1.51.57,2.17,2.17,0,0,0,2.17-2.15v-1a3.5,3.5,0,0,1-2.17.87,3.43,3.43,0,0,1-2.39-1,3.28,3.28,0,0,1,0-4.69,3.43,3.43,0,0,1,2.39-1,3.51,3.51,0,0,1,2.17.87v-.73Zm-1.21,3.16a2.17,2.17,0,1,0-2.17,2.14A2.16,2.16,0,0,0,98.79,16.23Z"/>
    </g>
  </g>
</svg>
