<svg xmlns="http://www.w3.org/2000/svg" viewBox="0 0 80.99 99.91"><defs><style>.cls-1{fill:#fff;}</style></defs><title>Ресурс 1</title><g id="Слой_2" data-name="Слой 2"><g id="Слой_1-2" data-name="Слой 1"><path class="cls-1" d="M17.49,95.77S34.86,82.86,36.9,79.35l-13-7.49C21.81,75.37,17.49,95.77,17.49,95.77Zm4.08-44.94S8.1,46.64,3.33,57.27s-3,15.18-3,15.18S13.5,62.15,18.55,66C18.54,55.84,21.56,50.83,21.56,50.83Zm34.79,20S53.51,75.91,44.65,81c5.88,2.42,3.51,18.92,3.51,18.92S53,99.15,59.87,89.73,56.36,70.8,56.36,70.8Zm17-69.17C63.71-3.88,47.85,5.56,42.42,14.9,38.76,21.21,27.92,48,24.24,66.49c2.53,1.45,5.47,3.11,8.59,4.9s6.11,3.41,8.65,4.87C55.68,63.83,73.56,41.17,77.22,34.87,82.64,25.54,82.93,7.15,73.32,1.64ZM66.06,34.11a10,10,0,0,1-13.61,3.46,9.85,9.85,0,0,1-3.79-13.45,10,10,0,0,1,13.61-3.46A9.85,9.85,0,0,1,66.06,34.11Z"/></g></g></svg>
